<svg width="220" height="220" viewBox="0 0 220 220" fill="none" xmlns="http://www.w3.org/2000/svg">
  <defs>
    <linearGradient id="body" x1="0" y1="0" x2="1" y2="1">
      <stop offset="0%" stop-color="#f3f4f6"/>
      <stop offset="100%" stop-color="#d1d5db"/>
    </linearGradient>
    <linearGradient id="face" x1="0" y1="0" x2="1" y2="1">
      <stop offset="0%" stop-color="#4b5563"/>
      <stop offset="100%" stop-color="#374151"/>
    </linearGradient>
    <linearGradient id="eye" x1="0" y1="0" x2="1" y2="1">
      <stop offset="0%" stop-color="#7dd3fc"/>
      <stop offset="100%" stop-color="#38bdf8"/>
    </linearGradient>
  </defs>

  <rect x="18" y="14" width="184" height="120" rx="58" fill="url(#body)"/>
  <rect x="40" y="35" width="140" height="78" rx="38" fill="url(#face)"/>
  <rect x="0" y="56" width="28" height="36" rx="10" fill="#cbd5e1"/>
  <rect x="192" y="56" width="28" height="36" rx="10" fill="#cbd5e1"/>

  <ellipse cx="82" cy="74" rx="16" ry="16" fill="url(#eye)">
    <animate attributeName="ry" values="16;16;16;2;16;16" keyTimes="0;0.72;0.82;0.86;0.9;1" dur="4.2s" repeatCount="indefinite" />
  </ellipse>
  <ellipse cx="138" cy="74" rx="16" ry="16" fill="url(#eye)">
    <animate attributeName="ry" values="16;16;16;2;16;16" keyTimes="0;0.72;0.82;0.86;0.9;1" dur="4.2s" repeatCount="indefinite" />
  </ellipse>

  <ellipse cx="110" cy="165" rx="62" ry="14" fill="#d1d5db"/>
  <path d="M56 164C58 196 81 214 110 214C139 214 162 196 164 164H56Z" fill="url(#body)"/>
  <path d="M95 164H125L112 178C110 180 107 180 105 178L95 164Z" fill="#f59e0b"/>
</svg>
